control3min_grf.mot
version=1
nRows=17
nColumns 19
inDegrees=yes
endheader
time	1_ground_force_vx	1_ground_force_vy	1_ground_force_vz	1_ground_force_px	1_ground_force_py	1_ground_force_pz	1_ground_torque_x	1_ground_torque_y	1_ground_torque_z	2_ground_force_vx	2_ground_force_vy	2_ground_force_vz	2_ground_force_px	2_ground_force_py	2_ground_force_pz	2_ground_torque_x	2_ground_torque_y	2_ground_torque_z
            0.005000	            0.274169	            4.867226	            0.020187	           -0.147720	            0.006094	           -0.371665	            0.673439	           -0.241280	            0.290820	           -2.546144	            6.378984	           16.026556	           -0.045824	            0.006208	           -0.666961	           -1.093652	           -3.977026	            0.796864
            0.005500	            0.503321	            3.966335	           -0.075958	           -0.147720	            0.006094	           -0.371665	            0.659178	           -0.222694	            0.300741	           -2.400901	            5.090118	           16.115753	           -0.045824	            0.006208	           -0.666961	           -1.075095	           -3.929224	            0.665074
            0.006000	            0.778397	            3.245523	           -0.125589	           -0.147720	            0.006094	           -0.371665	            0.605166	           -0.203851	            0.256316	           -2.267039	            6.932444	           16.028408	           -0.045824	            0.006208	           -0.666961	           -1.093779	           -3.948466	            0.740415
            0.006500	            0.686855	            4.326509	            0.016844	           -0.147720	            0.006094	           -0.371665	            0.617227	           -0.203644	            0.195945	           -2.260351	            5.090626	           16.115693	           -0.045824	            0.006208	           -0.666961	           -1.056200	           -3.948398	            0.759249
            0.007000	            0.870164	            3.425609	           -0.079187	           -0.147720	            0.006094	           -0.371665	            0.584269	           -0.111297	            0.241869	           -2.309880	            5.827217	           16.071413	           -0.045824	            0.006208	           -0.666961	           -0.887131	           -3.956971	            0.683743
            0.007500	            0.915630	            4.867940	           -0.118973	           -0.147720	            0.006094	           -0.371665	            0.642045	           -0.148965	            0.412651	           -2.544171	            5.826706	           15.977657	           -0.045824	            0.006208	           -0.666961	           -1.056234	           -3.938945	            0.759283
            0.008000	            0.412351	            3.784872	            0.198632	           -0.147720	            0.006094	           -0.371665	            0.591136	           -0.185605	            0.259570	           -2.498568	            6.194502	           16.166663	           -0.045824	            0.006208	           -0.666961	           -1.056208	           -3.948330	            0.740399
            0.008500	            0.274331	            5.227364	            0.113445	           -0.147720	            0.006094	           -0.371665	            0.650753	           -0.213954	            0.384972	           -2.404889	            6.195008	           16.119695	           -0.045824	            0.006208	           -0.666961	           -1.093566	           -4.005250	            0.759063
            0.009000	            0.503696	            3.785480	            0.060837	           -0.147720	            0.006094	           -0.371665	            0.578383	           -0.204299	            0.319825	           -2.356024	            5.642565	           16.164632	           -0.045824	            0.006208	           -0.666961	           -1.056004	           -4.005047	            0.740197
            0.009500	            0.365858	            3.605778	           -0.077163	           -0.147720	            0.006094	           -0.371665	            0.772016	           -0.158032	            0.294887	           -2.406841	            6.747118	           16.215523	           -0.045824	            0.006208	           -0.666961	           -1.056371	           -3.901134	            0.759418
            0.010000	            0.594747	            4.147012	           -0.167125	           -0.147720	            0.006094	           -0.371665	            0.550008	           -0.138921	            0.173688	           -2.355257	            5.457580	           16.398616	           -0.045824	            0.006208	           -0.666961	           -1.056413	           -3.891614	            0.740601
            0.010500	            1.007789	            4.146305	            0.015275	           -0.147720	            0.006094	           -0.371665	            0.654898	           -0.074082	            0.210096	           -2.312580	            6.564145	           15.980185	           -0.045824	            0.006208	           -0.666961	           -0.906138	           -3.891004	            0.721687
            0.011000	            0.824237	            4.506998	           -0.028580	           -0.147720	            0.006094	           -0.371665	            0.656854	           -0.176248	            0.295812	           -2.404347	            6.011864	           15.837470	           -0.045824	            0.006208	           -0.666961	           -1.018519	           -3.976687	            0.777982
            0.011500	            0.365499	            4.327233	           -0.165783	           -0.147720	            0.006094	           -0.371665	            0.625063	           -0.213121	            0.200999	           -2.591665	            6.010518	           16.025262	           -0.045824	            0.006208	           -0.666961	           -1.093507	           -4.014904	            0.815580
            0.012000	            0.503761	            3.424949	            0.059291	           -0.147720	            0.006094	           -0.371665	            0.653843	           -0.204526	            0.376044	           -2.544733	            6.010017	           16.212954	           -0.045824	            0.006208	           -0.666961	           -0.924591	           -3.985532	            0.702508
            0.012500	            0.594633	            4.147209	           -0.212981	           -0.147720	            0.006094	           -0.371665	            0.590033	           -0.204506	            0.380086	           -2.356730	            5.827048	           16.071433	           -0.045824	            0.006208	           -0.666961	           -1.093948	           -3.910386	            0.665149
            0.013000	            0.778850	            4.506203	            0.154958	           -0.147720	            0.006094	           -0.371665	            0.611664	           -0.139620	            0.369319	           -2.216845	            6.011704	           16.072031	           -0.045824	            0.006208	           -0.666961	           -1.037662	           -3.882094	            0.740627
